<svg width="1280" height="1280" viewBox="0 0 1280 1280" fill="none" xmlns="http://www.w3.org/2000/svg">
<rect width="1280" height="1280" fill="white"/>
<path d="M286.214 686.271H234.16L225.038 730.83C222.791 741.796 221.667 749.986 221.667 755.4C221.667 759.703 222.626 763.52 224.543 766.852C226.526 770.044 230.756 772.127 237.234 773.098V780.803H194.897V773.098C200.515 771.016 204.151 768.309 205.803 764.978C209.174 758.315 212.909 744.781 217.007 724.375L264.302 492H267.772L314.571 726.874C318.339 745.752 321.743 758.037 324.783 763.728C327.89 769.281 332.187 772.404 337.673 773.098V780.803H284.628V773.098C289.982 772.543 293.584 770.669 295.435 767.476C297.352 764.284 298.31 760.397 298.31 755.816C298.31 749.708 296.988 740.061 294.344 726.874L286.214 686.271ZM283.438 670.862L260.633 556.757L237.234 670.862H283.438Z" fill="black"/>
<path d="M411.909 780.803L359.954 543.223V731.871C359.954 749.223 360.846 760.05 362.631 764.353C365.077 770.183 368.944 773.098 374.232 773.098H378.991V780.803H332.192V773.098H337.673C343.358 773.098 346.668 769.489 349.048 762.271C350.502 757.829 351.229 747.696 351.229 731.871V547.387C351.229 534.894 350.568 525.871 349.246 520.318C348.321 516.293 346.602 512.961 344.09 510.324C341.644 507.547 337.678 506.159 332.192 506.159V498.455H370.266L419.048 719.378L467.036 498.455H505.11V506.159H500.45C494.699 506.159 490.634 509.768 488.254 516.987C486.8 521.429 486.073 531.562 486.073 547.387V731.871C486.073 749.223 486.999 760.05 488.849 764.353C491.295 770.183 495.162 773.098 500.45 773.098H505.11V780.803H447.999V773.098H452.759C458.509 773.098 462.541 769.489 464.855 762.271C466.309 757.829 467.036 747.696 467.036 731.871V543.223L415.181 780.803H411.909Z" fill="black"/>
<path d="M655.426 780.347L602.894 543.142V731.493C602.894 748.817 603.796 759.627 605.601 763.924C608.074 769.745 611.984 772.655 617.33 772.655H622.143V780.347H574.823V772.655H579.635C585.383 772.655 589.46 769.052 591.866 761.845C593.337 757.41 594.072 747.293 594.072 731.493V547.3C594.072 534.826 593.404 525.817 592.067 520.274C591.131 516.254 589.393 512.928 586.854 510.295C584.381 507.523 580.371 506.137 574.823 506.137V498.445H613.32L662.645 719.019L711.167 498.445H749.664V506.137H744.952C739.137 506.137 735.027 509.74 732.621 516.947C731.15 521.382 730.415 531.5 730.415 547.3V731.493C730.415 748.817 731.351 759.627 733.222 763.924C735.695 769.745 739.605 772.655 744.952 772.655H749.664V780.347H691.918V772.655H696.73C702.545 772.655 706.622 769.052 708.961 761.845C710.432 757.41 711.167 747.293 711.167 731.493V543.142L658.735 780.347H655.426Z" fill="black"/>
<path d="M840.349 506.137V498.445H888.47V506.137H883.357C878.011 506.137 873.9 510.78 871.026 520.066C869.623 524.362 868.921 534.341 868.921 550.002V664.344C868.921 692.617 867.551 714.584 864.811 730.246C862.137 745.768 856.824 759.142 848.871 770.369C840.984 781.456 830.224 787 816.589 787C801.752 787 790.49 781.664 782.804 770.992C775.118 760.32 769.671 745.976 766.463 727.959C764.324 715.624 763.255 692.478 763.255 658.523V548.339C763.255 531.015 762.085 519.65 759.746 514.245C757.474 508.84 753.764 506.137 748.618 506.137H743.505V498.445H802.253V506.137H797.04C791.426 506.137 787.416 509.81 785.01 517.155C783.339 522.145 782.503 532.539 782.503 548.339V671.204C782.503 682.153 782.971 694.696 783.907 708.833C784.909 722.969 786.681 733.988 789.22 741.888C791.76 749.788 795.403 756.301 800.148 761.429C804.96 766.557 810.841 769.121 817.792 769.121C826.681 769.121 834.635 765.102 841.652 757.063C848.67 749.025 853.449 738.769 855.988 726.296C858.595 713.683 859.898 692.409 859.898 662.473V548.339C859.898 530.738 858.963 519.719 857.091 515.284C854.485 509.186 850.608 506.137 845.462 506.137H840.349Z" fill="black"/>
<path d="M985.4 492V589.502H981.691C980.488 570.792 978.315 555.893 975.174 544.805C972.1 533.717 967.689 524.917 961.941 518.403C956.193 511.889 950.245 508.632 944.096 508.632C937.145 508.632 931.397 513.067 926.852 521.937C922.308 530.668 920.035 540.647 920.035 551.873C920.035 560.466 921.472 568.297 924.346 575.365C928.49 585.76 938.348 599.619 953.921 616.944C966.619 631.081 975.274 641.96 979.886 649.583C984.565 657.067 988.14 665.937 990.613 676.193C993.153 686.45 994.423 697.191 994.423 708.417C994.423 729.761 990.413 748.193 982.392 763.716C974.439 779.1 964.18 786.792 951.615 786.792C947.672 786.792 943.962 786.168 940.487 784.921C938.415 784.228 934.104 781.733 927.554 777.437C921.071 773.002 916.961 770.784 915.223 770.784C913.552 770.784 912.216 771.824 911.213 773.903C910.277 775.982 909.576 780.278 909.108 786.792H905.398V690.122H909.108C910.845 710.357 913.185 725.533 916.125 735.651C919.066 745.63 923.544 753.945 929.559 760.598C935.641 767.25 942.291 770.576 949.51 770.576C957.864 770.576 964.447 766.003 969.259 756.856C974.138 747.708 976.578 736.898 976.578 724.425C976.578 717.495 975.642 710.496 973.771 703.427C971.966 696.359 969.126 689.776 965.249 683.678C962.643 679.52 955.525 670.719 943.895 657.275C932.266 643.693 923.979 632.882 919.033 624.844C914.154 616.805 910.445 607.935 907.905 598.233C905.365 588.532 904.095 577.86 904.095 566.218C904.095 545.983 907.838 528.589 915.323 514.037C922.809 499.346 932.333 492 943.895 492C951.114 492 970.5 492 970.5 492C970.5 492 972.463 492 974 492C975.738 492 978 492 978 492L981.691 492H985.4Z" fill="black"/>
<path d="M1064.69 772.655V780.347H1006.44V772.655H1011.25C1016.86 772.655 1020.94 769.26 1023.48 762.469C1025.09 758.034 1025.89 747.362 1025.89 730.454V548.339C1025.89 534.064 1025.45 524.639 1024.58 520.066C1023.92 516.601 1022.55 513.621 1020.47 511.126C1017.53 507.8 1014.46 506.137 1011.25 506.137H1006.44V498.445H1064.69V506.137H1059.77C1054.23 506.137 1050.18 509.533 1047.64 516.324C1045.97 520.759 1045.14 531.431 1045.14 548.339V730.454C1045.14 744.729 1045.57 754.153 1046.44 758.727C1047.11 762.191 1048.51 765.171 1050.65 767.666C1053.52 770.992 1056.56 772.655 1059.77 772.655H1064.69Z" fill="black"/>
<path d="M1194.78 492L1197.89 587.839H1194.78C1190.64 559.15 1184.73 538.499 1177.04 525.887C1169.35 513.275 1160.13 506.968 1149.37 506.968C1140.35 506.968 1132.19 511.75 1124.91 521.313C1117.62 530.738 1111.88 545.844 1107.66 566.634C1103.52 587.423 1101.45 613.271 1101.45 644.178C1101.45 669.679 1103.42 691.785 1107.36 710.496C1111.31 729.206 1117.22 743.55 1125.11 753.529C1133.06 763.508 1142.12 768.498 1152.28 768.498C1161.1 768.498 1168.89 764.617 1175.64 756.856C1182.39 748.956 1189.81 733.364 1197.89 710.08L1201 714.238C1194.18 739.324 1186.23 757.687 1177.14 769.329C1168.05 780.971 1157.26 786.792 1144.76 786.792C1122.23 786.792 1104.79 769.468 1092.43 734.819C1083.2 709.041 1078.59 678.688 1078.59 643.762C1078.59 615.627 1081.63 589.779 1087.71 566.218C1093.8 542.657 1102.15 524.431 1112.78 511.542C1123.47 498.514 1135.13 492 1147.77 492C1157.59 492 1178.5 492 1178.5 492C1178.5 492 1183.8 492 1185 492L1188.5 492C1188.5 492 1191 492 1191.28 492H1194.78Z" fill="black"/>
<path d="M137.247 772.491V780.183H79V772.491H83.8121C89.4263 772.491 93.5032 769.095 96.0429 762.304C97.647 757.869 98.449 747.197 98.449 730.289V548.175C98.449 533.899 98.0146 524.475 97.1457 519.901C96.4774 516.436 95.1072 513.456 93.0353 510.962C90.0946 507.635 87.0202 505.972 83.8121 505.972H79V498.28H137.247V505.972H132.334C126.787 505.972 122.744 509.368 120.204 516.159C118.533 520.594 117.697 531.266 117.697 548.175V730.289C117.697 744.564 118.132 753.988 119.001 758.562C119.669 762.027 121.073 765.007 123.211 767.501C126.085 770.828 129.126 772.491 132.334 772.491H137.247Z" fill="black"/>
<path d="M130.546 696.956H85.2244V593.2H130.546V696.956Z" fill="black"/>
<path d="M252 654.374H270.09L263 610.5H262L252 654.374ZM235.901 593.2H298.15L323.268 696.956H278.22L273.032 671.454H248.46L241.089 696.956H202.866L235.901 593.2Z" fill="black"/>
<path d="M367.907 608.355V696.956H331.595V593.2H398.212L417.324 666.937H417.87L436.981 593.2H502.233V696.956H461.28V608.355H460.734L434.524 696.956H394.663L368.453 608.355H367.907Z" fill="black"/>
<path d="M613.466 608.355V696.956H577.154V593.2H643.771L662.882 666.937H663.428L682.54 593.2H747.791V696.956H706.838V608.355H706.292L680.082 696.956H640.221L614.012 608.355H613.466Z" fill="black"/>
<path d="M874.198 593.2V667.374C873.106 689.378 858.909 698.996 816.59 698.996C760.621 698.996 759.529 678.158 759.529 665.042V593.2H804.851V667.957C804.851 676.263 804.851 682.384 816.59 682.384C828.876 682.384 828.876 676.263 828.876 667.957V593.2H874.198Z" fill="black"/>
<path d="M1000.84 630.36H955.521V615.787C955.521 610.687 952.518 607.772 943.509 607.772C933.68 607.772 931.496 610.687 931.496 615.787C931.496 633.274 1000.84 638.375 1000.84 670.434C1000.84 689.961 981.185 698.996 943.236 698.996C914.296 698.996 886.174 693.75 886.174 675.826V656.59H931.496V674.514C931.496 680.635 935.045 682.384 943.509 682.384C950.88 682.384 955.521 680.635 955.521 674.514C955.521 651.053 886.174 650.616 886.174 617.099C886.174 598.3 909.381 591.16 944.328 591.16C974.906 591.16 1000.84 596.697 1000.84 614.039V630.36Z" fill="black"/>
<path d="M1057.32 696.956H1012V593.2H1057.32V696.956Z" fill="black"/>
<path d="M1138.16 656.59H1183.21V670.288C1183.21 689.67 1163.83 698.996 1125.6 698.996C1095.57 698.996 1068.54 692.439 1068.54 668.685V621.471C1068.54 597.718 1095.57 591.16 1125.6 591.16C1158.64 591.16 1183.21 596.406 1183.21 618.848V630.214H1137.89V615.933C1137.89 611.707 1135.43 607.772 1125.6 607.772C1116.32 607.772 1113.86 611.707 1113.86 615.933V674.223C1113.86 678.449 1116.32 682.384 1125.6 682.384C1135.43 682.384 1137.89 678.449 1137.89 674.223L1138.16 656.59Z" fill="black"/>
</svg>